Coordinates
version=1
nRows=4
nColumns=124
inDegrees=yes

Units are S.I. units (second, meters, Newtons, ...)
If the header above contains a line with 'inDegrees', this indicates whether rotational values are in degrees (yes) or radians (no).

endheader 
time	pelvis_tilt	pelvis_list	pelvis_rotation	pelvis_tx	pelvis_ty	pelvis_tz	hip_flexion_l	hip_adduction_l	hip_rotation_l	hip_flexion_r	hip_adduction_r	hip_rotation_r	knee_angle_l	knee_angle_r	ankle_angle_l	ankle_angle_r	subtalar_angle_l	subtalar_angle_r	mtp_angle_l	mtp_angle_r	lumbar_extension	lumbar_bending	lumbar_rotation	arm_flex_l	arm_add_l	arm_rot_l	arm_flex_r	arm_add_r	arm_rot_r	elbow_flex_l	elbow_flex_r	glut_med1_l/activation	glut_med2_l/activation	glut_med3_l/activation	glut_min1_l/activation	glut_min2_l/activation	glut_min3_l/activation	semimem_l/activation	semiten_l/activation	bifemlh_l/activation	bifemsh_l/activation	sar_l/activation	add_long_l/activation	add_brev_l/activation	add_mag1_l/activation	add_mag2_l/activation	add_mag3_l/activation	tfl_l/activation	pect_l/activation	grac_l/activation	glut_max1_l/activation	glut_max2_l/activation	glut_max3_l/activation	iliacus_l/activation	psoas_l/activation	quad_fem_l/activation	gem_l/activation	peri_l/activation	rect_fem_l/activation	vas_med_l/activation	vas_int_l/activation	vas_lat_l/activation	med_gas_l/activation	lat_gas_l/activation	soleus_l/activation	tib_post_l/activation	flex_dig_l/activation	flex_hal_l/activation	tib_ant_l/activation	per_brev_l/activation	per_long_l/activation	per_tert_l/activation	ext_dig_l/activation	ext_hal_l/activation	ercspn_l/activation	intobl_l/activation	extobl_l/activation	glut_med1_r/activation	glut_med2_r/activation	glut_med3_r/activation	glut_min1_r/activation	glut_min2_r/activation	glut_min3_r/activation	semimem_r/activation	semiten_r/activation	bifemlh_r/activation	bifemsh_r/activation	sar_r/activation	add_long_r/activation	add_brev_r/activation	add_mag1_r/activation	add_mag2_r/activation	add_mag3_r/activation	tfl_r/activation	pect_r/activation	grac_r/activation	glut_max1_r/activation	glut_max2_r/activation	glut_max3_r/activation	iliacus_r/activation	psoas_r/activation	quad_fem_r/activation	gem_r/activation	peri_r/activation	rect_fem_r/activation	vas_med_r/activation	vas_int_r/activation	vas_lat_r/activation	med_gas_r/activation	lat_gas_r/activation	soleus_r/activation	tib_post_r/activation	flex_dig_r/activation	flex_hal_r/activation	tib_ant_r/activation	per_brev_r/activation	per_long_r/activation	per_tert_r/activation	ext_dig_r/activation	ext_hal_r/activation	ercspn_r/activation	intobl_r/activation	extobl_r/activation	
          0.80496983	         -3.27247150	        -16.28803673	         10.08917424	          0.49507382	          1.02748961	         -0.00942231	          0.24930815	        -16.33270085	         12.15541332	         10.03338349	         17.22613265	         -4.62952882	         -5.20094196	         -7.87403771	         13.99369715	          2.38259861	        -10.87380101	         -5.56672744	          6.22819135	          0.13022866	          2.53921605	          3.83266837	         -0.11459596	        -15.14624829	        -18.43178327	          6.73217600	          8.39197434	        -13.46448148	          2.68292757	          0.06917760	         81.56091389	          0.05003303	          0.47639319	          0.23379229	          0.19305502	          0.22105796	          0.07455747	          0.05000075	          0.05000106	          0.05000065	          0.09804275	          0.24512241	          0.05000041	          0.05000103	          0.05000370	          0.05000387	          0.05000352	          0.47864611	          0.05000379	          0.05000173	          0.05002119	          0.05002432	          0.05000350	          0.10960368	          0.14090074	          0.05000168	          0.05001955	          0.21808674	          0.48275355	          0.05000362	          0.05000344	          0.05000298	          0.45287891	          0.20750848	          0.49710369	          0.49119262	          0.21972283	          0.19311890	          0.10613821	          0.05000148	          0.05000075	          0.05000816	          0.05828014	          0.07782417	          0.05000014	          0.05000019	          0.05000022	          0.05000114	          0.05000144	          0.05000540	          0.05000467	          0.05000489	          0.05001054	          0.05000025	          0.05000053	          0.05000027	          0.05000315	          0.11617876	          0.22669860	          0.37718840	          0.05001777	          0.05001702	          0.05000525	          0.05004112	          0.05171289	          0.05002877	          0.05000614	          0.05000426	          0.05000671	          0.11839849	          0.12402683	          0.19736984	          0.12026848	          0.05000550	          0.07635435	          0.07977469	          0.08440034	          0.07030300	          0.05000027	          0.05000057	          0.05000014	          0.05000099	          0.05000357	          0.05000280	          0.37371800	          0.06024002	          0.05000593	          0.24390058	          0.52997058	          0.27561718	          0.15417045	          0.30834954	          0.17140958	
          0.83716862	         -3.35010944	        -15.25652490	         10.75741960	          0.51061295	          1.02378996	         -0.01071393	         -0.81697971	        -15.41975611	         12.09337253	         13.22671557	         15.37017316	         -4.66558050	         -4.90215179	         -7.16386639	         14.48177838	          1.57110633	        -10.72380781	         -6.72940913	          6.73718921	          0.12989649	          2.25217254	          3.35085702	         -0.42084045	        -11.29766115	        -17.49854889	          8.79919299	          9.48829668	        -13.48142241	          2.55352747	          0.00001025	         70.46838812	          0.05003141	          0.43773600	          0.22422972	          0.17451918	          0.20475155	          0.07748553	          0.05000086	          0.05000116	          0.05000073	          0.11198545	          0.22751808	          0.05000047	          0.05000115	          0.05000413	          0.05000431	          0.05000387	          0.46099028	          0.05000420	          0.05000199	          0.05002068	          0.05002322	          0.05000394	          0.13945528	          0.18630029	          0.05000224	          0.05002557	          0.23333705	          0.48854448	          0.05000340	          0.05000318	          0.05000285	          0.52553358	          0.26949343	          0.55548921	          0.50569648	          0.22940691	          0.20483050	          0.14845446	          0.05000164	          0.05000078	          0.05001394	          0.10430140	          0.12651845	          0.05000014	          0.05000020	          0.05000021	          0.05000132	          0.05000148	          0.05000489	          0.05000521	          0.05000520	          0.05001053	          0.05000025	          0.05000059	          0.05000028	          0.05000359	          0.10430187	          0.24266177	          0.38780264	          0.05001783	          0.05001696	          0.05000518	          0.05065528	          0.05075255	          0.05002641	          0.05000557	          0.05000382	          0.05000532	          0.12458545	          0.12840924	          0.17956627	          0.07827226	          0.05000357	          0.08419894	          0.07353514	          0.07896136	          0.06556779	          0.05000033	          0.05000069	          0.05000016	          0.05000112	          0.05000389	          0.05000319	          0.32348630	          0.05003343	          0.05000747	          0.20443217	          0.56952066	          0.23327989	          0.15098361	          0.30435433	          0.17838433	
          0.86936742	         -3.42151651	        -14.07813949	         11.30858493	          0.52779540	          1.01952627	         -0.01196582	         -2.06970165	        -14.39129073	         11.81458818	         16.17726631	         13.38322150	         -4.53427381	         -4.63554427	         -6.85012477	         15.06536883	          0.80214485	        -10.34093342	         -7.96596713	          7.31491912	          0.13234675	          2.01647947	          2.90843979	         -0.73803005	         -7.63350921	        -16.35051491	         11.46200776	         10.77688689	        -13.53700838	          3.66124504	          0.36537471	         58.09215382	          0.05002904	          0.39971989	          0.21573876	          0.15038269	          0.18468724	          0.07709442	          0.05000094	          0.05000126	          0.05000077	          0.12487637	          0.20854289	          0.05000052	          0.05000124	          0.05000455	          0.05000476	          0.05000422	          0.45422187	          0.05000446	          0.05000230	          0.05002065	          0.05002678	          0.05000468	          0.17502799	          0.24265038	          0.05000284	          0.05003248	          0.25000015	          0.48867907	          0.05000338	          0.05000316	          0.05000284	          0.61339968	          0.36081624	          0.63620391	          0.53025997	          0.25333550	          0.23762078	          0.19869154	          0.05000156	          0.05000067	          0.05013560	          0.13393090	          0.16783152	          0.05000013	          0.05000019	          0.05000021	          0.05000150	          0.05000147	          0.05000439	          0.05000596	          0.05000542	          0.05001030	          0.05000027	          0.05000070	          0.05000031	          0.05000428	          0.08964275	          0.27021603	          0.41864356	          0.05001798	          0.05001669	          0.05000547	          0.05846163	          0.05075264	          0.05003165	          0.05000517	          0.05000357	          0.05000492	          0.13081324	          0.13392038	          0.14617292	          0.05094090	          0.05000287	          0.09415702	          0.06676478	          0.07082168	          0.05896051	          0.05000041	          0.05000091	          0.05000020	          0.05000164	          0.05000580	          0.05000404	          0.30727247	          0.05452906	          0.05000340	          0.15986096	          0.60845933	          0.22382994	          0.14576253	          0.31008911	          0.18399675	
          0.90156621	         -3.48463166	        -12.81367852	         11.74034117	          0.54693877	          1.01466788	         -0.01314671	         -3.49359147	        -13.31687021	         11.26340745	         18.84206961	         11.43329105	         -4.21664963	         -4.42481795	         -7.01192434	         15.66578303	          0.16946472	         -9.64625732	         -9.25316629	          8.08730657	          0.14155410	          1.83572943	          2.59440850	         -1.06232949	         -4.52487473	        -15.15811554	         14.37597566	         11.97893836	        -13.61158051	          6.30130577	          1.92604211	         45.21675786	          0.05002511	          0.39628501	          0.26069043	          0.11129341	          0.17068740	          0.08990854	          0.05000108	          0.05000137	          0.05000086	          0.16038817	          0.21045752	          0.05000054	          0.05000127	          0.05000480	          0.05000502	          0.05000433	          0.44960018	          0.05000456	          0.05000273	          0.05002109	          0.05003019	          0.05000578	          0.23239420	          0.30330224	          0.06231764	          0.07068172	          0.27546056	          0.48561512	          0.05000273	          0.05000252	          0.05000232	          0.71501341	          0.47778945	          0.73493147	          0.56205246	          0.29048729	          0.29133176	          0.15093490	          0.05000079	          0.05000036	          0.05009279	          0.11806167	          0.11807656	          0.05000013	          0.05000018	          0.05000020	          0.05000187	          0.05000154	          0.05000423	          0.05000694	          0.05000569	          0.05001025	          0.05000033	          0.05000093	          0.05000037	          0.05000547	          0.07412976	          0.28762031	          0.44483579	          0.05001876	          0.05001887	          0.05000698	          0.05004848	          0.05095315	          0.05933943	          0.05000511	          0.05000354	          0.05000505	          0.12864746	          0.13071471	          0.10907779	          0.05000390	          0.05000259	          0.10192520	          0.05652202	          0.07157276	          0.05805508	          0.05000050	          0.05000067	          0.05000036	          0.05000121	          0.05000422	          0.05000348	          0.32495116	          0.07682934	          0.05000370	          0.10689128	          0.64578979	          0.23657211	          0.13965919	          0.32640243	          0.18424457	
